<svg width="52" height="40" viewBox="0 0 52 40" fill="none" xmlns="http://www.w3.org/2000/svg">
<path d="M46.7724 34.27C51.4899 29.15 51.0149 22.575 50.9999 22.5V2.5C50.9999 1.83696 50.7365 1.20107 50.2677 0.732234C49.7989 0.263393 49.163 0 48.4999 0H33.4999C30.7424 0 28.4999 2.2425 28.4999 5V22.5C28.4999 23.163 28.7633 23.7989 29.2322 24.2678C29.701 24.7366 30.3369 25 30.9999 25H38.6949C38.6421 26.236 38.2728 27.4377 37.6224 28.49C36.3524 30.4925 33.9599 31.86 30.5074 32.55L28.4999 32.95V40H30.9999C37.9574 40 43.2649 38.0725 46.7724 34.27ZM19.2549 34.27C23.9749 29.15 23.4974 22.575 23.4824 22.5V2.5C23.4824 1.83696 23.219 1.20107 22.7502 0.732234C22.2813 0.263393 21.6455 0 20.9824 0H5.98242C3.22492 0 0.982422 2.2425 0.982422 5V22.5C0.982422 23.163 1.24581 23.7989 1.71465 24.2678C2.1835 24.7366 2.81938 25 3.48242 25H11.1774C11.1246 26.236 10.7553 27.4377 10.1049 28.49C8.83492 30.4925 6.44242 31.86 2.98992 32.55L0.982422 32.95V40H3.48242C10.4399 40 15.7474 38.0725 19.2549 34.27Z" fill="#E5745D" fill-opacity="0.5"/>
</svg>
